<?xml version="1.0"?>
<svg xmlns="http://www.w3.org/2000/svg" viewBox="0 0 64 64" width="512" height="512"><g id="instruction"><path d="M57,54a1,1,0,0,0,1-1V5a3.009,3.009,0,0,0-3-3H11A5,5,0,0,0,6,7V57a5,5,0,0,0,5,5H57a1,1,0,0,0,0-2,3,3,0,0,1,0-6ZM56,9.91l-7.11,7.95-2.75-2.75L56,6.29Zm-8.36,9.53-2.21,3.31-4.05,1.74-1.87-1.87,1.74-4.05,3.31-2.21ZM14,42.17l3.25-3.24a1,1,0,0,0,.18-1.16c-1.14-2.28-.29-5.81,1.94-8.03a7.209,7.209,0,0,1,5.26-2.09l-3.24,4.31a1,1,0,0,0,.09,1.31l4.25,4.25a1,1,0,0,0,1.31.09l4.31-3.24a7.169,7.169,0,0,1-2.09,5.26,7.821,7.821,0,0,1-8.09,1.91,1.019,1.019,0,0,0-1.1.21L14,47.83ZM8,7a3.009,3.009,0,0,1,3-3h1V52H11a4.924,4.924,0,0,0-3,1.03ZM52.11,58A5.038,5.038,0,0,0,53,60H11a3,3,0,0,1,0-6H53a5.038,5.038,0,0,0-.89,2H14v2ZM14,52V50.65l7.04-7.03a9.975,9.975,0,0,0,9.64-2.57,9.1,9.1,0,0,0,2.38-8.75,1.02,1.02,0,0,0-.65-.69,1.009,1.009,0,0,0-.92.15l-4.96,3.73-3.02-3.02,3.73-4.96a1.009,1.009,0,0,0,.15-.92,1.02,1.02,0,0,0-.69-.65,9.1,9.1,0,0,0-8.75,2.38c-2.64,2.64-3.68,6.67-2.6,9.67L14,39.35V4H55a.886.886,0,0,1,.43.11L44.08,14.27l-4.19,2.8a1,1,0,0,0-.37.44L37.4,22.46a1,1,0,0,0,.22,1.1l2.82,2.82a.992.992,0,0,0,.71.3,1.046,1.046,0,0,0,.39-.08l4.95-2.12a1,1,0,0,0,.44-.37l2.8-4.19L56,12.91V52Z"/><rect x="10" y="56" width="2" height="2"/><path d="M28,11a4,4,0,1,0,4,4A4,4,0,0,0,28,11Zm0,6a2,2,0,1,1,2-2A2,2,0,0,1,28,17Z"/><path d="M36.24,12.03l-.67-.17.36-.59a1,1,0,0,0-.15-1.22L32.95,7.22a1.012,1.012,0,0,0-1.22-.15l-.59.36-.17-.67A1,1,0,0,0,30,6H26a1,1,0,0,0-.97.76l-.17.67-.59-.36a1.014,1.014,0,0,0-1.22.15l-2.83,2.83a1,1,0,0,0-.15,1.22l.36.59-.67.17A1,1,0,0,0,19,13v4a1,1,0,0,0,.76.97l.67.17-.36.59a1,1,0,0,0,.15,1.22l2.83,2.83a1.014,1.014,0,0,0,1.22.15l.59-.36.17.67A1,1,0,0,0,26,24h4a1,1,0,0,0,.97-.76l.17-.67.59.36a1.014,1.014,0,0,0,1.22-.15l2.83-2.83a1,1,0,0,0,.15-1.22l-.36-.59.67-.17A1,1,0,0,0,37,17V13A1,1,0,0,0,36.24,12.03ZM35,16.22l-1.22.3a1.007,1.007,0,0,0-.68.59,1.019,1.019,0,0,0,.06.9l.65,1.08-1.72,1.72-1.08-.65a1.019,1.019,0,0,0-.9-.06,1.007,1.007,0,0,0-.59.68L29.22,22H26.78l-.3-1.22a1.007,1.007,0,0,0-.59-.68,1.019,1.019,0,0,0-.9.06l-1.08.65-1.72-1.72.65-1.08a1.019,1.019,0,0,0,.06-.9,1.007,1.007,0,0,0-.68-.59L21,16.22V13.78l1.22-.3a1.007,1.007,0,0,0,.68-.59,1.019,1.019,0,0,0-.06-.9l-.65-1.08,1.72-1.72,1.08.64a.987.987,0,0,0,.9.07,1.007,1.007,0,0,0,.59-.68L26.78,8h2.44l.3,1.22a1.007,1.007,0,0,0,.59.68.989.989,0,0,0,.9-.07l1.08-.64,1.72,1.72-.65,1.08a1.019,1.019,0,0,0-.06.9,1.007,1.007,0,0,0,.68.59l1.22.3Z"/><path d="M45,34a4,4,0,1,0,4,4A4,4,0,0,0,45,34Zm0,6a2,2,0,1,1,2-2A2,2,0,0,1,45,40Z"/><path d="M53.243,35.03l-.669-.167.355-.591a1,1,0,0,0-.151-1.222L49.95,30.222a1,1,0,0,0-1.222-.151l-.591.355-.167-.669A1,1,0,0,0,47,29H43a1,1,0,0,0-.97.757l-.167.669-.591-.355a1,1,0,0,0-1.222.151L37.222,33.05a1,1,0,0,0-.151,1.222l.355.591-.669.167A1,1,0,0,0,36,36v4a1,1,0,0,0,.757.97l.669.167-.355.591a1,1,0,0,0,.151,1.222l2.828,2.828a1,1,0,0,0,1.222.151l.591-.355.167.669A1,1,0,0,0,43,47h4a1,1,0,0,0,.97-.757l.167-.669.591.355a1,1,0,0,0,1.222-.151l2.828-2.828a1,1,0,0,0,.151-1.222l-.355-.591.669-.167A1,1,0,0,0,54,40V36A1,1,0,0,0,53.243,35.03ZM52,39.219l-1.221.3a1,1,0,0,0-.614,1.485l.647,1.079-1.724,1.724-1.079-.647a1,1,0,0,0-1.485.614L46.219,45H43.781l-.3-1.221a1,1,0,0,0-1.485-.614l-1.079.647-1.724-1.724.647-1.079a1,1,0,0,0-.614-1.485L38,39.219V36.781l1.221-.3a1,1,0,0,0,.614-1.485l-.647-1.079,1.724-1.724,1.079.647a1,1,0,0,0,1.485-.615l.3-1.22h2.438l.3,1.22a1,1,0,0,0,1.485.615l1.079-.647,1.724,1.724-.647,1.079a1,1,0,0,0,.614,1.485l1.221.3Z"/></g></svg>
