<svg height="464pt" viewBox="-4 0 464 464" width="464pt" xmlns="http://www.w3.org/2000/svg"><path d="m96 336h16v16h-16zm0 0"/><path d="m160 272h16v16h-16zm0 0"/><path d="m96 272h16v16h-16zm0 0"/><path d="m160 336h16v80h-16zm0 0"/><path d="m96 400h16v16h-16zm0 0"/><path d="m96 96h-40v-16h40.800781c1.234375-5.820312 3.761719-11.289062 7.398438-16h-48.199219v-16h312v-24c0-13.253906-10.746094-24-24-24h-288c-13.253906 0-24 10.746094-24 24v88h64zm24-80h16v16h-16zm-32 0h16v16h-16zm-32 0h16v16h-16zm0 0"/><path d="m32 272h16v16h-16zm0 0"/><path d="m32 400h16v16h-16zm0 0"/><path d="m32 336h16v16h-16zm0 0"/><path d="m424 320c13.253906 0 24-10.746094 24-24v-208c0-13.253906-10.746094-24-24-24h-288c-13.253906 0-24 10.746094-24 24v24h80c17.671875 0 32 14.328125 32 32v176zm-272-224h-16v-16h16zm32 0h-16v-16h16zm32 0h-16v-16h16zm24 144h80v-16h-80v-16h80v-16h-80v-16h80v-16h-80v-16h80v-16h-80v-16h184v16h-88v16h88v16h-88v16h88v16h-88v16h88v16h-88v16h88v16h-88v16h88v16h-104v-32h-80zm0 0"/><path d="m192 128h-176c-8.835938 0-16 7.164062-16 16v288c0 8.835938 7.164062 16 16 16h176c8.835938 0 16-7.164062 16-16v-288c0-8.835938-7.164062-16-16-16zm-128 296c0 4.417969-3.582031 8-8 8h-32c-4.417969 0-8-3.582031-8-8v-32c0-4.417969 3.582031-8 8-8h32c4.417969 0 8 3.582031 8 8zm0-64c0 4.417969-3.582031 8-8 8h-32c-4.417969 0-8-3.582031-8-8v-32c0-4.417969 3.582031-8 8-8h32c4.417969 0 8 3.582031 8 8zm0-64c0 4.417969-3.582031 8-8 8h-32c-4.417969 0-8-3.582031-8-8v-32c0-4.417969 3.582031-8 8-8h32c4.417969 0 8 3.582031 8 8zm64 128c0 4.417969-3.582031 8-8 8h-32c-4.417969 0-8-3.582031-8-8v-32c0-4.417969 3.582031-8 8-8h32c4.417969 0 8 3.582031 8 8zm0-64c0 4.417969-3.582031 8-8 8h-32c-4.417969 0-8-3.582031-8-8v-32c0-4.417969 3.582031-8 8-8h32c4.417969 0 8 3.582031 8 8zm0-64c0 4.417969-3.582031 8-8 8h-32c-4.417969 0-8-3.582031-8-8v-32c0-4.417969 3.582031-8 8-8h32c4.417969 0 8 3.582031 8 8zm64 128c0 4.417969-3.582031 8-8 8h-32c-4.417969 0-8-3.582031-8-8v-96c0-4.417969 3.582031-8 8-8h32c4.417969 0 8 3.582031 8 8zm0-128c0 4.417969-3.582031 8-8 8h-32c-4.417969 0-8-3.582031-8-8v-32c0-4.417969 3.582031-8 8-8h32c4.417969 0 8 3.582031 8 8zm0-64c0 4.417969-3.582031 8-8 8h-160c-4.417969 0-8-3.582031-8-8v-64c0-4.417969 3.582031-8 8-8h160c4.417969 0 8 3.582031 8 8zm0 0"/><path d="m32 224h144v-48h-144zm112-32h16v16h-16zm-32 0h16v16h-16zm-32 0h16v16h-16zm0 0"/><path d="m248 408 24 16h72v-32h-72zm0 0"/><path d="m408 448h-56v16h56c13.253906 0 24-10.746094 24-24h-16c0 4.417969-3.582031 8-8 8zm0 0"/><path d="m360 392h56v32h-56zm0 0"/><path d="m440 392h-8v32h8c8.835938 0 16-7.164062 16-16s-7.164062-16-16-16zm0 0"/></svg>